<svg width="20" height="20" viewBox="0 0 20 20" fill="none" xmlns="http://www.w3.org/2000/svg">
<g clip-path="url(#clip0_3062_1519)">
<path d="M1.66668 14.5833H3.75C4.67047 14.5833 5.41668 15.3295 5.41668 16.25V18.3333C5.41668 19.2538 4.67047 20 3.75 20H1.66668C0.746211 20 0 19.2538 0 18.3333V16.25C0 15.3295 0.746211 14.5833 1.66668 14.5833Z" fill="#AD1E1E"/>
<path d="M19.2649 14.8683C18.99 14.682 18.6654 14.5827 18.3333 14.5833H16.2499C15.3295 14.5833 14.5833 15.3294 14.5833 16.25V18.3333C14.5833 19.2538 15.3295 20 16.2499 20H18.3333C19.2538 20 19.9999 19.2538 19.9999 18.3333V16.25C19.9999 15.6958 19.7244 15.178 19.2649 14.8683Z" fill="#AD1E1E"/>
<path d="M1.66668 7.29169H3.75C4.67047 7.29169 5.41668 8.0379 5.41668 8.95837V11.0417C5.41668 11.9622 4.67047 12.7084 3.75 12.7084H1.66668C0.746211 12.7083 0 11.9622 0 11.0417V8.95837C0 8.03786 0.746211 7.29169 1.66668 7.29169Z" fill="#AD1E1E"/>
<path d="M19.2649 7.57664C18.99 7.39039 18.6654 7.2911 18.3333 7.29164H16.2499C15.3295 7.29164 14.5833 8.03786 14.5833 8.95833V11.0417C14.5833 11.9621 15.3295 12.7083 16.2499 12.7083H18.3333C19.2537 12.7083 19.9999 11.9621 19.9999 11.0417V8.95833C19.9999 8.40418 19.7244 7.88637 19.2649 7.57664Z" fill="#AD1E1E"/>
<path d="M1.66668 0H3.75C4.67047 0 5.41668 0.746211 5.41668 1.66668V3.75C5.41668 4.67047 4.67047 5.41668 3.75 5.41668H1.66668C0.746211 5.41668 0 4.67047 0 3.75V1.66668C0 0.746211 0.746211 0 1.66668 0Z" fill="#AD1E1E"/>
<path d="M11.9734 14.8683C11.6985 14.682 11.3739 14.5827 11.0418 14.5833H8.95843C8.03796 14.5833 7.29175 15.3294 7.29175 16.25V18.3333C7.29175 19.2537 8.03796 20 8.95843 20H11.0418C11.9622 20 12.7084 19.2538 12.7084 18.3333V16.25C12.7084 15.6958 12.4329 15.178 11.9734 14.8683Z" fill="#AD1E1E"/>
<path d="M11.9734 7.57664C11.6985 7.39039 11.3739 7.2911 11.0418 7.29164H8.95843C8.03796 7.29164 7.29175 8.03786 7.29175 8.95833V11.0417C7.29175 11.9621 8.03796 12.7083 8.95843 12.7083H11.0418C11.9622 12.7083 12.7084 11.9621 12.7084 11.0417V8.95833C12.7084 8.40418 12.4329 7.88637 11.9734 7.57664Z" fill="#AD1E1E"/>
<path d="M11.9734 0.284955C11.6985 0.0987046 11.3739 -0.000592312 11.0418 -4.54369e-05H8.95843C8.03796 -4.54369e-05 7.29175 0.746166 7.29175 1.66663V3.74996C7.29175 4.67042 8.03796 5.41664 8.95843 5.41664H11.0418C11.9622 5.41664 12.7084 4.67042 12.7084 3.74996V1.66663C12.7084 1.11253 12.4329 0.594681 11.9734 0.284955Z" fill="#AD1E1E"/>
<path d="M19.7149 0.735C19.4052 0.275547 18.8874 7.8125e-05 18.3333 0H16.2499C15.3295 0 14.5833 0.746211 14.5833 1.66668V3.75C14.5833 4.67047 15.3295 5.41668 16.2499 5.41668H18.3333C19.2538 5.41668 19.9999 4.67047 19.9999 3.75V1.66668C20.0005 1.33457 19.9012 1.00996 19.7149 0.735Z" fill="#AD1E1E"/>
</g>
<defs>
<clipPath id="clip0_3062_1519">
<rect width="20" height="20" fill="white"/>
</clipPath>
</defs>
</svg>
