<svg width="18" height="18" viewBox="0 0 18 18" fill="none" xmlns="http://www.w3.org/2000/svg">
<path d="M1.125 4.875C1.125 2.59682 2.97182 0.75 5.25 0.75C7.5282 0.75 9.375 2.59682 9.375 4.875C9.375 7.15318 7.5282 9 5.25 9C2.97182 9 1.125 7.15318 1.125 4.875Z" fill="#5F5F5F"/>
<path d="M10.8751 4.875C10.8751 6.00026 10.5447 7.04834 9.97559 7.9275C10.7083 8.59387 11.6818 9 12.7501 9C15.0283 9 16.8751 7.15318 16.8751 4.875C16.8751 2.59682 15.0283 0.75 12.7501 0.75C11.6818 0.75 10.7083 1.15615 9.97559 1.82247C10.5447 2.70166 10.8751 3.74974 10.8751 4.875Z" fill="#5F5F5F"/>
<path d="M0 13.5C0 11.8432 1.34314 10.5 3 10.5H7.5C9.15683 10.5 10.5 11.8432 10.5 13.5V16.5C10.5 16.9142 10.1642 17.25 9.75 17.25H0.75C0.335787 17.25 0 16.9142 0 16.5V13.5Z" fill="#5F5F5F"/>
<path d="M11.9999 13.5V17.25H17.2499C17.664 17.25 17.9999 16.9142 17.9999 16.5V13.5C17.9999 11.8432 16.6567 10.5 14.9999 10.5H10.854C11.5665 11.2961 11.9999 12.3475 11.9999 13.5Z" fill="#5F5F5F"/>
</svg>
