<svg width="14" height="15" viewBox="0 0 14 15" fill="none" xmlns="http://www.w3.org/2000/svg">
<path d="M10.188 3C9.6093 1.67557 8.28772 0.75 6.75 0.75C4.67893 0.75 3 2.42893 3 4.5V6.0216M3 6.0216C3.35356 6 3.78944 6 4.35 6H9.15C10.4101 6 11.0401 6 11.5215 6.24525C11.9449 6.46095 12.2891 6.80512 12.5048 7.2285C12.75 7.70985 12.75 8.33985 12.75 9.6V10.65C12.75 11.9102 12.75 12.5401 12.5048 13.0215C12.2891 13.4449 11.9449 13.7891 11.5215 14.0048C11.0401 14.25 10.4101 14.25 9.15 14.25H4.35C3.08988 14.25 2.45982 14.25 1.97852 14.0048C1.55516 13.7891 1.21095 13.4449 0.995235 13.0215C0.75 12.5401 0.75 11.9102 0.75 10.65V9.6C0.75 8.33985 0.75 7.70985 0.995235 7.2285C1.21095 6.80512 1.55516 6.46095 1.97852 6.24525C2.24572 6.10912 2.55876 6.04853 3 6.0216ZM6.75 9.375V10.875" stroke="#7E7E7E" stroke-width="1.5" stroke-linecap="round" stroke-linejoin="round"/>
</svg>
