<svg width="20" height="20" viewBox="0 0 20 20" fill="none" xmlns="http://www.w3.org/2000/svg">
<path d="M10.7168 14C8.91855 14 7.38415 13.3634 6.11015 12.089C4.83595 10.814 4.19995 9.2776 4.19995 7.4798C4.19995 6.1862 4.56535 4.9886 5.29475 3.8818C6.02595 2.7762 6.98115 1.962 8.16035 1.436C8.23475 1.3794 8.31035 1.3896 8.38455 1.464C8.47795 1.5206 8.50695 1.6038 8.46915 1.7172C8.17055 2.431 8.02035 3.1504 8.02035 3.8818C8.02035 5.5498 8.61535 6.9778 9.80475 8.1682C10.994 9.3582 12.4216 9.9532 14.0888 9.9532C15.006 9.9532 15.8024 9.8132 16.4766 9.532C16.5508 9.4744 16.6252 9.484 16.6998 9.5584C16.7926 9.6152 16.8218 9.6984 16.7838 9.8118C16.2976 11.0864 15.5064 12.1024 14.41 12.8614C13.315 13.6204 12.084 14 10.7168 14Z" fill="#FA870B"/>
<path d="M13.7254 6.091C16.1204 6.091 18.0618 8.016 18.0618 10.391C18.0618 12.7658 16.1204 14.691 13.7254 14.691L13.7734 14.6906L13.7736 14.691L13.7492 14.6908H5.63645L5.63625 14.6904L5.57225 14.691C3.51165 14.691 1.83685 13.0524 1.80065 11.0176L1.80005 10.9504C1.80005 8.8846 3.48885 7.21 5.57225 7.21C7.47265 7.21 9.04485 8.6034 9.30625 10.416H9.38905V10.391C9.38905 8.0398 11.2918 6.1294 13.6536 6.0914L13.7254 6.091Z" fill="#DFF1FB"/>
<path d="M5.70905 15.3164C6.23025 15.3164 6.49085 15.577 6.49085 16.0982C6.49085 16.6194 6.23025 16.88 5.70905 16.88C5.18785 16.88 4.92725 16.6194 4.92725 16.0982C4.92725 15.577 5.18785 15.3164 5.70905 15.3164Z" fill="#DFF1FB"/>
<path d="M8.52362 15.3164C9.04482 15.3164 9.30542 15.577 9.30542 16.0982C9.30542 16.6194 9.04482 16.88 8.52362 16.88C8.00242 16.88 7.74182 16.6194 7.74182 16.0982C7.74182 15.577 8.00242 15.3164 8.52362 15.3164Z" fill="#DFF1FB"/>
<path d="M11.3382 15.3164C11.8594 15.3164 12.12 15.577 12.12 16.0982C12.12 16.6194 11.8594 16.88 11.3382 16.88C10.817 16.88 10.5564 16.6194 10.5564 16.0982C10.5564 15.577 10.817 15.3164 11.3382 15.3164Z" fill="#DFF1FB"/>
<path d="M14.1528 15.3164C14.674 15.3164 14.9346 15.577 14.9346 16.0982C14.9346 16.6194 14.674 16.88 14.1528 16.88C13.6316 16.88 13.371 16.6194 13.371 16.0982C13.371 15.577 13.6316 15.3164 14.1528 15.3164Z" fill="#DFF1FB"/>
<path d="M12.7454 17.349H12.7456C13.1625 17.349 13.371 17.5575 13.371 17.9744V17.9746C13.371 18.3915 13.1625 18.6 12.7456 18.6H12.7454C12.3285 18.6 12.12 18.3915 12.12 17.9746V17.9744C12.12 17.5575 12.3285 17.349 12.7454 17.349Z" fill="#DFF1FB"/>
<path d="M9.93082 17.349H9.93102C10.348 17.349 10.5564 17.5575 10.5564 17.9744V17.9746C10.5564 18.3915 10.348 18.6 9.93102 18.6H9.93082C9.51389 18.6 9.30542 18.3915 9.30542 17.9746V17.9744C9.30542 17.5575 9.51389 17.349 9.93082 17.349Z" fill="#DFF1FB"/>
<path d="M7.11637 17.349H7.11657C7.5335 17.349 7.74197 17.5575 7.74197 17.9744V17.9746C7.74197 18.3915 7.5335 18.6 7.11657 18.6H7.11637C6.69943 18.6 6.49097 18.3915 6.49097 17.9746V17.9744C6.49097 17.5575 6.69943 17.349 7.11637 17.349Z" fill="#DFF1FB"/>
</svg>
