<svg width="537" height="340" viewBox="0 0 537 340" fill="none" xmlns="http://www.w3.org/2000/svg">
<g filter="url(#filter0_d_8_1197)">
<g clip-path="url(#clip0_8_1197)">
<path d="M9 20C9 13.3726 14.3726 8 21 8H516C522.627 8 528 13.3726 528 20V318C528 324.627 522.627 330 516 330H21C14.3726 330 9 324.627 9 318V20Z" fill="white"/>
<g filter="url(#filter1_d_8_1197)">
<g clip-path="url(#clip1_8_1197)">
<path d="M9 19C9 12.3726 14.3726 7 21 7H516C522.627 7 528 12.3726 528 19V317C528 323.627 522.627 329 516 329H21C14.3726 329 9 323.627 9 317V19Z" fill="white"/>
<rect x="9" y="7" width="519" height="322" fill="white"/>
<path d="M225.132 169L220.932 164.656L225.048 160.672H226.512L222.072 164.944V164.32L226.632 169H225.132ZM219.984 169V160.672H221.112V169H219.984ZM227.765 169V160.672H228.893V169H227.765ZM228.533 169V167.968H233.309V169H228.533ZM228.533 165.232V164.248H232.913V165.232H228.533ZM228.533 161.704V160.672H233.249V161.704H228.533ZM237.319 165.616L234.043 160.672H235.351L237.991 164.716H237.403L240.055 160.672H241.339L238.039 165.616H237.319ZM237.127 169V164.872H238.255V169H237.127ZM241.448 166.456V165.436H245.396V166.456H241.448ZM248.472 169.12C247.928 169.12 247.432 169.02 246.984 168.82C246.544 168.612 246.172 168.312 245.868 167.92L246.636 167.152C246.82 167.432 247.072 167.656 247.392 167.824C247.712 167.984 248.068 168.064 248.46 168.064C248.828 168.064 249.144 167.996 249.408 167.86C249.68 167.716 249.892 167.516 250.044 167.26C250.204 167.004 250.284 166.708 250.284 166.372C250.284 166.028 250.204 165.732 250.044 165.484C249.892 165.228 249.676 165.032 249.396 164.896C249.116 164.76 248.784 164.692 248.4 164.692C248.256 164.692 248.112 164.704 247.968 164.728C247.824 164.744 247.684 164.772 247.548 164.812L248.028 164.164C248.18 164.092 248.344 164.036 248.52 163.996C248.696 163.956 248.872 163.936 249.048 163.936C249.496 163.936 249.896 164.04 250.248 164.248C250.608 164.456 250.892 164.748 251.1 165.124C251.316 165.5 251.424 165.936 251.424 166.432C251.424 166.96 251.296 167.428 251.04 167.836C250.792 168.236 250.448 168.552 250.008 168.784C249.568 169.008 249.056 169.12 248.472 169.12ZM247.548 164.812V164.128L249.984 161.356L251.328 161.344L248.82 164.188L247.548 164.812ZM246.264 161.68V160.672H251.328V161.344L250.344 161.68H246.264Z" fill="#3F3F3F"/>
<path d="M225.132 204L220.932 199.656L225.048 195.672H226.512L222.072 199.944V199.32L226.632 204H225.132ZM219.984 204V195.672H221.112V204H219.984ZM227.765 204V195.672H228.893V204H227.765ZM228.533 204V202.968H233.309V204H228.533ZM228.533 200.232V199.248H232.913V200.232H228.533ZM228.533 196.704V195.672H233.249V196.704H228.533ZM237.319 200.616L234.043 195.672H235.351L237.991 199.716H237.403L240.055 195.672H241.339L238.039 200.616H237.319ZM237.127 204V199.872H238.255V204H237.127ZM241.448 201.456V200.436H245.396V201.456H241.448ZM246.583 201.132L249.62 195.672H250.892L247.796 201.132H246.583ZM246.583 201.828V201.132L247.064 200.82H252.967V201.828H246.583ZM250.652 204V198.492H251.768V204H250.652Z" fill="#3F3F3F"/>
<path d="M225.132 238L220.932 233.656L225.048 229.672H226.512L222.072 233.944V233.32L226.632 238H225.132ZM219.984 238V229.672H221.112V238H219.984ZM227.765 238V229.672H228.893V238H227.765ZM228.533 238V236.968H233.309V238H228.533ZM228.533 234.232V233.248H232.913V234.232H228.533ZM228.533 230.704V229.672H233.249V230.704H228.533ZM237.319 234.616L234.043 229.672H235.351L237.991 233.716H237.403L240.055 229.672H241.339L238.039 234.616H237.319ZM237.127 238V233.872H238.255V238H237.127ZM241.448 235.456V234.436H245.396V235.456H241.448ZM249.164 238.12C248.596 238.12 248.088 238.02 247.64 237.82C247.2 237.612 246.828 237.312 246.524 236.92L247.292 236.152C247.476 236.432 247.728 236.656 248.048 236.824C248.376 236.984 248.74 237.064 249.14 237.064C249.516 237.064 249.844 236.992 250.124 236.848C250.412 236.704 250.636 236.504 250.796 236.248C250.964 235.984 251.048 235.672 251.048 235.312C251.048 234.944 250.968 234.632 250.808 234.376C250.648 234.12 250.432 233.928 250.16 233.8C249.896 233.664 249.604 233.596 249.284 233.596C248.956 233.596 248.656 233.636 248.384 233.716C248.12 233.796 247.868 233.932 247.628 234.124L247.64 233.404C247.776 233.236 247.932 233.1 248.108 232.996C248.284 232.892 248.484 232.812 248.708 232.756C248.932 232.7 249.192 232.672 249.488 232.672C250.064 232.672 250.552 232.792 250.952 233.032C251.352 233.272 251.656 233.596 251.864 234.004C252.08 234.412 252.188 234.868 252.188 235.372C252.188 235.9 252.056 236.372 251.792 236.788C251.536 237.204 251.18 237.532 250.724 237.772C250.268 238.004 249.748 238.12 249.164 238.12ZM247.628 234.124L247.016 233.512L247.388 229.672H248.42L248 233.62L247.628 234.124ZM247.616 230.68L247.388 229.672H251.768V230.68H247.616Z" fill="#3F3F3F"/>
<path d="M225.132 273L220.932 268.656L225.048 264.672H226.512L222.072 268.944V268.32L226.632 273H225.132ZM219.984 273V264.672H221.112V273H219.984ZM227.765 273V264.672H228.893V273H227.765ZM228.533 273V271.968H233.309V273H228.533ZM228.533 269.232V268.248H232.913V269.232H228.533ZM228.533 265.704V264.672H233.249V265.704H228.533ZM237.319 269.616L234.043 264.672H235.351L237.991 268.716H237.403L240.055 264.672H241.339L238.039 269.616H237.319ZM237.127 273V268.872H238.255V273H237.127ZM241.448 270.456V269.436H245.396V270.456H241.448ZM249.572 273.12C249.02 273.12 248.524 272.992 248.084 272.736C247.652 272.48 247.308 272.136 247.052 271.704C246.796 271.272 246.668 270.792 246.668 270.264C246.668 269.528 246.924 268.796 247.436 268.068L249.884 264.672H251.192L248.684 268.092L248.276 268.308C248.372 268.14 248.488 268 248.624 267.888C248.76 267.768 248.928 267.676 249.128 267.612C249.328 267.548 249.564 267.516 249.836 267.516C250.324 267.516 250.764 267.632 251.156 267.864C251.556 268.096 251.876 268.416 252.116 268.824C252.364 269.224 252.488 269.692 252.488 270.228C252.488 270.756 252.356 271.24 252.092 271.68C251.836 272.12 251.484 272.472 251.036 272.736C250.596 272.992 250.108 273.12 249.572 273.12ZM249.572 272.064C249.908 272.064 250.208 271.984 250.472 271.824C250.744 271.656 250.956 271.436 251.108 271.164C251.268 270.884 251.348 270.572 251.348 270.228C251.348 269.884 251.268 269.576 251.108 269.304C250.956 269.024 250.744 268.804 250.472 268.644C250.208 268.484 249.908 268.404 249.572 268.404C249.236 268.404 248.932 268.484 248.66 268.644C248.396 268.804 248.184 269.024 248.024 269.304C247.872 269.576 247.796 269.884 247.796 270.228C247.796 270.572 247.872 270.884 248.024 271.164C248.184 271.444 248.396 271.664 248.66 271.824C248.932 271.984 249.236 272.064 249.572 272.064Z" fill="#3F3F3F"/>
<path d="M225.132 306L220.932 301.656L225.048 297.672H226.512L222.072 301.944V301.32L226.632 306H225.132ZM219.984 306V297.672H221.112V306H219.984ZM227.765 306V297.672H228.893V306H227.765ZM228.533 306V304.968H233.309V306H228.533ZM228.533 302.232V301.248H232.913V302.232H228.533ZM228.533 298.704V297.672H233.249V298.704H228.533ZM237.319 302.616L234.043 297.672H235.351L237.991 301.716H237.403L240.055 297.672H241.339L238.039 302.616H237.319ZM237.127 306V301.872H238.255V306H237.127ZM241.448 303.456V302.436H245.396V303.456H241.448ZM246.942 306L250.062 298.332L251.178 298.368L248.13 306H246.942ZM245.634 298.68V297.672H251.178V298.368L250.686 298.68H245.634Z" fill="#3F3F3F"/>
<path d="M225.132 103L220.932 98.656L225.048 94.672H226.512L222.072 98.944V98.32L226.632 103H225.132ZM219.984 103V94.672H221.112V103H219.984ZM227.765 103V94.672H228.893V103H227.765ZM228.533 103V101.968H233.309V103H228.533ZM228.533 99.232V98.248H232.913V99.232H228.533ZM228.533 95.704V94.672H233.249V95.704H228.533ZM237.319 99.616L234.043 94.672H235.351L237.991 98.716H237.403L240.055 94.672H241.339L238.039 99.616H237.319ZM237.127 103V98.872H238.255V103H237.127ZM241.448 100.456V99.436H245.396V100.456H241.448ZM247.607 103V94.672H248.723V103H247.607ZM245.903 95.68V94.672H248.603V95.68H245.903Z" fill="#3F3F3F"/>
<path d="M225.132 136L220.932 131.656L225.048 127.672H226.512L222.072 131.944V131.32L226.632 136H225.132ZM219.984 136V127.672H221.112V136H219.984ZM227.765 136V127.672H228.893V136H227.765ZM228.533 136V134.968H233.309V136H228.533ZM228.533 132.232V131.248H232.913V132.232H228.533ZM228.533 128.704V127.672H233.249V128.704H228.533ZM237.319 132.616L234.043 127.672H235.351L237.991 131.716H237.403L240.055 127.672H241.339L238.039 132.616H237.319ZM237.127 136V131.872H238.255V136H237.127ZM241.448 133.456V132.436H245.396V133.456H241.448ZM246.244 135.316L249.316 132.076C249.628 131.756 249.872 131.48 250.048 131.248C250.224 131.008 250.348 130.788 250.42 130.588C250.5 130.388 250.54 130.18 250.54 129.964C250.54 129.54 250.404 129.208 250.132 128.968C249.86 128.728 249.508 128.608 249.076 128.608C248.652 128.608 248.28 128.712 247.96 128.92C247.64 129.12 247.356 129.432 247.108 129.856L246.316 129.196C246.644 128.652 247.04 128.244 247.504 127.972C247.968 127.692 248.504 127.552 249.112 127.552C249.624 127.552 250.068 127.652 250.444 127.852C250.828 128.052 251.124 128.332 251.332 128.692C251.54 129.052 251.644 129.472 251.644 129.952C251.644 130.296 251.6 130.604 251.512 130.876C251.432 131.148 251.284 131.428 251.068 131.716C250.86 131.996 250.568 132.332 250.192 132.724L247.708 135.28L246.244 135.316ZM246.244 136V135.316L247.204 134.992H251.836V136H246.244Z" fill="#3F3F3F"/>
<circle cx="36.5" cy="65.5" r="7.5" fill="#ECECEC"/>
<circle cx="35.5" cy="94.5" r="7.5" fill="#ECECEC"/>
<circle cx="496.5" cy="99.5" r="7.5" fill="#FFD7D3"/>
<path d="M508 31C508 36.5228 503.523 41 498 41C492.477 41 488 36.5228 488 31C488 25.4772 492.477 21 498 21C503.523 21 508 25.4772 508 31Z" fill="#401B01"/>
<path d="M495.764 35.12C495.164 35.12 494.608 35.012 494.096 34.796C493.584 34.572 493.136 34.264 492.752 33.872C492.376 33.48 492.084 33.024 491.876 32.504C491.668 31.984 491.564 31.428 491.564 30.836C491.564 30.236 491.668 29.676 491.876 29.156C492.084 28.636 492.376 28.184 492.752 27.8C493.136 27.408 493.58 27.104 494.084 26.888C494.596 26.664 495.152 26.552 495.752 26.552C496.408 26.552 496.984 26.664 497.48 26.888C497.976 27.112 498.416 27.416 498.8 27.8L498.02 28.58C497.756 28.284 497.432 28.052 497.048 27.884C496.672 27.716 496.24 27.632 495.752 27.632C495.312 27.632 494.908 27.712 494.54 27.872C494.172 28.024 493.852 28.244 493.58 28.532C493.308 28.82 493.096 29.16 492.944 29.552C492.8 29.944 492.728 30.372 492.728 30.836C492.728 31.3 492.8 31.728 492.944 32.12C493.096 32.512 493.308 32.852 493.58 33.14C493.852 33.428 494.172 33.652 494.54 33.812C494.908 33.964 495.312 34.04 495.752 34.04C496.272 34.04 496.724 33.956 497.108 33.788C497.492 33.612 497.816 33.376 498.08 33.08L498.86 33.848C498.476 34.248 498.024 34.56 497.504 34.784C496.992 35.008 496.412 35.12 495.764 35.12ZM502.421 35.12C501.765 35.12 501.205 35 500.741 34.76C500.277 34.52 499.865 34.172 499.505 33.716L500.273 32.948C500.537 33.316 500.841 33.596 501.185 33.788C501.529 33.972 501.953 34.064 502.457 34.064C502.953 34.064 503.349 33.956 503.645 33.74C503.949 33.524 504.101 33.228 504.101 32.852C504.101 32.54 504.029 32.288 503.885 32.096C503.741 31.904 503.545 31.748 503.297 31.628C503.057 31.5 502.793 31.388 502.505 31.292C502.217 31.188 501.929 31.08 501.641 30.968C501.353 30.848 501.089 30.704 500.849 30.536C500.609 30.36 500.413 30.132 500.261 29.852C500.117 29.572 500.045 29.22 500.045 28.796C500.045 28.324 500.157 27.924 500.381 27.596C500.613 27.26 500.925 27.004 501.317 26.828C501.717 26.644 502.165 26.552 502.661 26.552C503.205 26.552 503.693 26.66 504.125 26.876C504.557 27.084 504.909 27.36 505.181 27.704L504.413 28.472C504.165 28.184 503.897 27.968 503.609 27.824C503.329 27.68 503.005 27.608 502.637 27.608C502.189 27.608 501.833 27.708 501.569 27.908C501.305 28.1 501.173 28.372 501.173 28.724C501.173 29.004 501.245 29.232 501.389 29.408C501.541 29.576 501.737 29.72 501.977 29.84C502.217 29.96 502.481 30.072 502.769 30.176C503.065 30.272 503.357 30.38 503.645 30.5C503.933 30.62 504.197 30.772 504.437 30.956C504.677 31.14 504.869 31.38 505.013 31.676C505.165 31.964 505.241 32.328 505.241 32.768C505.241 33.504 504.985 34.08 504.473 34.496C503.969 34.912 503.285 35.12 502.421 35.12Z" fill="white"/>
<path d="M56.188 38.12C55.524 38.12 54.932 37.976 54.412 37.688C53.9 37.392 53.496 36.988 53.2 36.476C52.904 35.964 52.756 35.384 52.756 34.736V29.564H54.388V34.784C54.388 35.16 54.464 35.484 54.616 35.756C54.776 36.028 54.992 36.24 55.264 36.392C55.544 36.536 55.852 36.608 56.188 36.608C56.532 36.608 56.836 36.536 57.1 36.392C57.364 36.24 57.572 36.028 57.724 35.756C57.884 35.484 57.964 35.164 57.964 34.796V29.564H59.608V34.748C59.608 35.396 59.46 35.976 59.164 36.488C58.868 36.992 58.464 37.392 57.952 37.688C57.448 37.976 56.86 38.12 56.188 38.12ZM64.9515 38V34.676C64.9515 34.332 64.8435 34.052 64.6275 33.836C64.4115 33.62 64.1315 33.512 63.7875 33.512C63.5635 33.512 63.3635 33.56 63.1875 33.656C63.0115 33.752 62.8715 33.888 62.7675 34.064C62.6715 34.24 62.6235 34.444 62.6235 34.676L62.0115 34.364C62.0115 33.908 62.1075 33.512 62.2995 33.176C62.4995 32.832 62.7715 32.564 63.1155 32.372C63.4675 32.18 63.8635 32.084 64.3035 32.084C64.7275 32.084 65.1075 32.192 65.4435 32.408C65.7795 32.616 66.0435 32.892 66.2355 33.236C66.4275 33.572 66.5235 33.936 66.5235 34.328V38H64.9515ZM61.0515 38V32.204H62.6235V38H61.0515ZM68.5714 38V29.792H70.1434V38H68.5714ZM67.2154 33.584V32.204H71.4994V33.584H67.2154ZM72.3835 38V32.204H73.9675V38H72.3835ZM73.1755 31.268C72.9195 31.268 72.7075 31.184 72.5395 31.016C72.3715 30.84 72.2875 30.624 72.2875 30.368C72.2875 30.12 72.3715 29.908 72.5395 29.732C72.7075 29.556 72.9195 29.468 73.1755 29.468C73.4395 29.468 73.6515 29.556 73.8115 29.732C73.9795 29.908 74.0635 30.12 74.0635 30.368C74.0635 30.624 73.9795 30.84 73.8115 31.016C73.6515 31.184 73.4395 31.268 73.1755 31.268ZM76.2121 38V29.792H77.7841V38H76.2121ZM74.8561 33.584V32.204H79.1401V33.584H74.8561ZM80.0241 38V29.324H81.5961V38H80.0241ZM85.761 38.12C85.153 38.12 84.613 37.992 84.141 37.736C83.669 37.472 83.293 37.112 83.013 36.656C82.741 36.2 82.605 35.68 82.605 35.096C82.605 34.52 82.737 34.008 83.001 33.56C83.273 33.104 83.641 32.744 84.105 32.48C84.569 32.208 85.085 32.072 85.653 32.072C86.213 32.072 86.705 32.2 87.129 32.456C87.561 32.704 87.897 33.048 88.137 33.488C88.385 33.92 88.509 34.412 88.509 34.964C88.509 35.068 88.501 35.176 88.485 35.288C88.477 35.392 88.457 35.512 88.425 35.648L83.553 35.66V34.484L87.693 34.472L87.057 34.964C87.041 34.62 86.977 34.332 86.865 34.1C86.761 33.868 86.605 33.692 86.397 33.572C86.197 33.444 85.949 33.38 85.653 33.38C85.341 33.38 85.069 33.452 84.837 33.596C84.605 33.732 84.425 33.928 84.297 34.184C84.177 34.432 84.117 34.728 84.117 35.072C84.117 35.424 84.181 35.732 84.309 35.996C84.445 36.252 84.637 36.452 84.885 36.596C85.133 36.732 85.421 36.8 85.749 36.8C86.045 36.8 86.313 36.752 86.553 36.656C86.793 36.552 87.001 36.4 87.177 36.2L88.101 37.124C87.821 37.452 87.477 37.7 87.069 37.868C86.669 38.036 86.233 38.12 85.761 38.12ZM91.9292 38.12C91.3932 38.12 90.9132 37.988 90.4892 37.724C90.0652 37.46 89.7292 37.1 89.4812 36.644C89.2412 36.188 89.1212 35.676 89.1212 35.108C89.1212 34.532 89.2412 34.016 89.4812 33.56C89.7292 33.104 90.0612 32.744 90.4772 32.48C90.9012 32.216 91.3852 32.084 91.9292 32.084C92.3452 32.084 92.7172 32.168 93.0452 32.336C93.3812 32.504 93.6492 32.74 93.8492 33.044C94.0572 33.34 94.1692 33.676 94.1852 34.052V36.116C94.1692 36.492 94.0612 36.832 93.8612 37.136C93.6612 37.44 93.3932 37.68 93.0572 37.856C92.7212 38.032 92.3452 38.12 91.9292 38.12ZM92.1932 36.668C92.4892 36.668 92.7452 36.604 92.9612 36.476C93.1852 36.34 93.3572 36.156 93.4772 35.924C93.6052 35.684 93.6692 35.408 93.6692 35.096C93.6692 34.792 93.6052 34.524 93.4772 34.292C93.3572 34.052 93.1852 33.868 92.9612 33.74C92.7452 33.604 92.4932 33.536 92.2052 33.536C91.9092 33.536 91.6492 33.604 91.4252 33.74C91.2092 33.876 91.0372 34.06 90.9092 34.292C90.7892 34.524 90.7292 34.792 90.7292 35.096C90.7292 35.408 90.7892 35.684 90.9092 35.924C91.0372 36.156 91.2132 36.34 91.4372 36.476C91.6612 36.604 91.9132 36.668 92.1932 36.668ZM95.1452 38H93.5852V36.44L93.8372 35.024L93.5732 33.632V29.324H95.1452V38ZM102.096 38.12C101.68 38.12 101.304 38.036 100.968 37.868C100.632 37.692 100.364 37.456 100.164 37.16C99.9636 36.864 99.8556 36.524 99.8396 36.14V34.088C99.8556 33.704 99.9636 33.364 100.164 33.068C100.372 32.764 100.64 32.524 100.968 32.348C101.304 32.172 101.68 32.084 102.096 32.084C102.632 32.084 103.112 32.216 103.536 32.48C103.96 32.744 104.292 33.104 104.532 33.56C104.78 34.016 104.904 34.532 104.904 35.108C104.904 35.676 104.78 36.188 104.532 36.644C104.292 37.1 103.96 37.46 103.536 37.724C103.112 37.988 102.632 38.12 102.096 38.12ZM98.8796 40.424V32.204H100.452V33.728L100.188 35.132L100.44 36.536V40.424H98.8796ZM101.82 36.668C102.108 36.668 102.364 36.604 102.588 36.476C102.812 36.34 102.984 36.156 103.104 35.924C103.232 35.684 103.296 35.408 103.296 35.096C103.296 34.792 103.232 34.524 103.104 34.292C102.984 34.052 102.812 33.868 102.588 33.74C102.364 33.604 102.108 33.536 101.82 33.536C101.54 33.536 101.288 33.604 101.064 33.74C100.84 33.868 100.664 34.052 100.536 34.292C100.416 34.524 100.356 34.792 100.356 35.096C100.356 35.408 100.416 35.684 100.536 35.924C100.664 36.156 100.836 36.34 101.052 36.476C101.276 36.604 101.532 36.668 101.82 36.668ZM105.934 38V32.204H107.506V38H105.934ZM107.506 34.796L106.894 34.388C106.966 33.676 107.174 33.116 107.518 32.708C107.862 32.292 108.358 32.084 109.006 32.084C109.286 32.084 109.538 32.132 109.762 32.228C109.986 32.316 110.19 32.464 110.374 32.672L109.39 33.8C109.302 33.704 109.194 33.632 109.066 33.584C108.946 33.536 108.806 33.512 108.646 33.512C108.31 33.512 108.034 33.62 107.818 33.836C107.61 34.044 107.506 34.364 107.506 34.796ZM113.486 38.12C112.902 38.12 112.374 37.988 111.902 37.724C111.438 37.452 111.066 37.088 110.786 36.632C110.514 36.168 110.378 35.652 110.378 35.084C110.378 34.516 110.514 34.008 110.786 33.56C111.058 33.104 111.43 32.744 111.902 32.48C112.374 32.208 112.898 32.072 113.474 32.072C114.066 32.072 114.594 32.208 115.058 32.48C115.53 32.744 115.902 33.104 116.174 33.56C116.446 34.008 116.582 34.516 116.582 35.084C116.582 35.652 116.446 36.168 116.174 36.632C115.902 37.088 115.53 37.452 115.058 37.724C114.594 37.988 114.07 38.12 113.486 38.12ZM113.474 36.656C113.77 36.656 114.03 36.592 114.254 36.464C114.486 36.328 114.662 36.144 114.782 35.912C114.91 35.672 114.974 35.4 114.974 35.096C114.974 34.792 114.91 34.524 114.782 34.292C114.654 34.06 114.478 33.88 114.254 33.752C114.03 33.616 113.77 33.548 113.474 33.548C113.186 33.548 112.93 33.616 112.706 33.752C112.482 33.88 112.306 34.06 112.178 34.292C112.05 34.524 111.986 34.792 111.986 35.096C111.986 35.4 112.05 35.672 112.178 35.912C112.306 36.144 112.482 36.328 112.706 36.464C112.93 36.592 113.186 36.656 113.474 36.656ZM117.126 40.568C116.71 40.568 116.366 40.5 116.094 40.364C115.814 40.228 115.562 40.036 115.338 39.788L116.334 38.792C116.43 38.912 116.534 38.996 116.646 39.044C116.75 39.1 116.874 39.128 117.018 39.128C117.218 39.128 117.386 39.068 117.522 38.948C117.658 38.828 117.726 38.652 117.726 38.42V32.204H119.298V38.396C119.298 38.852 119.198 39.24 118.998 39.56C118.806 39.888 118.546 40.136 118.218 40.304C117.898 40.48 117.534 40.568 117.126 40.568ZM118.53 31.268C118.274 31.268 118.062 31.184 117.894 31.016C117.726 30.84 117.642 30.624 117.642 30.368C117.642 30.12 117.726 29.908 117.894 29.732C118.062 29.556 118.274 29.468 118.53 29.468C118.794 29.468 119.006 29.556 119.166 29.732C119.334 29.908 119.418 30.12 119.418 30.368C119.418 30.624 119.334 30.84 119.166 31.016C119.006 31.184 118.794 31.268 118.53 31.268ZM123.448 38.12C122.84 38.12 122.3 37.992 121.828 37.736C121.356 37.472 120.98 37.112 120.7 36.656C120.428 36.2 120.292 35.68 120.292 35.096C120.292 34.52 120.424 34.008 120.688 33.56C120.96 33.104 121.328 32.744 121.792 32.48C122.256 32.208 122.772 32.072 123.34 32.072C123.9 32.072 124.392 32.2 124.816 32.456C125.248 32.704 125.584 33.048 125.824 33.488C126.072 33.92 126.196 34.412 126.196 34.964C126.196 35.068 126.188 35.176 126.172 35.288C126.164 35.392 126.144 35.512 126.112 35.648L121.24 35.66V34.484L125.38 34.472L124.744 34.964C124.728 34.62 124.664 34.332 124.552 34.1C124.448 33.868 124.292 33.692 124.084 33.572C123.884 33.444 123.636 33.38 123.34 33.38C123.028 33.38 122.756 33.452 122.524 33.596C122.292 33.732 122.112 33.928 121.984 34.184C121.864 34.432 121.804 34.728 121.804 35.072C121.804 35.424 121.868 35.732 121.996 35.996C122.132 36.252 122.324 36.452 122.572 36.596C122.82 36.732 123.108 36.8 123.436 36.8C123.732 36.8 124 36.752 124.24 36.656C124.48 36.552 124.688 36.4 124.864 36.2L125.788 37.124C125.508 37.452 125.164 37.7 124.756 37.868C124.356 38.036 123.92 38.12 123.448 38.12ZM129.905 38.12C129.313 38.12 128.781 37.988 128.309 37.724C127.837 37.46 127.465 37.1 127.193 36.644C126.921 36.188 126.785 35.676 126.785 35.108C126.785 34.532 126.921 34.016 127.193 33.56C127.465 33.104 127.837 32.744 128.309 32.48C128.789 32.208 129.321 32.072 129.905 32.072C130.361 32.072 130.781 32.156 131.165 32.324C131.549 32.492 131.881 32.732 132.161 33.044L131.153 34.064C131.001 33.896 130.817 33.768 130.601 33.68C130.393 33.592 130.161 33.548 129.905 33.548C129.617 33.548 129.357 33.616 129.125 33.752C128.901 33.88 128.721 34.06 128.585 34.292C128.457 34.516 128.393 34.784 128.393 35.096C128.393 35.4 128.457 35.672 128.585 35.912C128.721 36.144 128.901 36.328 129.125 36.464C129.357 36.592 129.617 36.656 129.905 36.656C130.169 36.656 130.405 36.612 130.613 36.524C130.829 36.428 131.013 36.292 131.165 36.116L132.185 37.136C131.889 37.456 131.549 37.7 131.165 37.868C130.781 38.036 130.361 38.12 129.905 38.12ZM133.833 38V29.792H135.405V38H133.833ZM132.477 33.584V32.204H136.761V33.584H132.477Z" fill="#360F0F"/>
<path d="M38.66 308V301.26H39.6V308H38.66ZM36.3 301.92V301.06H41.95V301.92H36.3ZM43.7916 308.1C43.3183 308.1 42.8916 307.993 42.5116 307.78C42.1316 307.56 41.8316 307.263 41.6116 306.89C41.3916 306.517 41.2816 306.093 41.2816 305.62C41.2816 305.153 41.3883 304.733 41.6016 304.36C41.8216 303.987 42.115 303.693 42.4816 303.48C42.855 303.26 43.2716 303.15 43.7316 303.15C44.1716 303.15 44.5583 303.25 44.8916 303.45C45.2316 303.65 45.495 303.927 45.6816 304.28C45.875 304.633 45.9716 305.033 45.9716 305.48C45.9716 305.547 45.9683 305.62 45.9616 305.7C45.955 305.773 45.9416 305.86 45.9216 305.96H41.9116V305.21H45.4416L45.1116 305.5C45.1116 305.18 45.055 304.91 44.9416 304.69C44.8283 304.463 44.6683 304.29 44.4616 304.17C44.255 304.043 44.005 303.98 43.7116 303.98C43.405 303.98 43.135 304.047 42.9016 304.18C42.6683 304.313 42.4883 304.5 42.3616 304.74C42.235 304.98 42.1716 305.263 42.1716 305.59C42.1716 305.923 42.2383 306.217 42.3716 306.47C42.505 306.717 42.695 306.91 42.9416 307.05C43.1883 307.183 43.4716 307.25 43.7916 307.25C44.0583 307.25 44.3016 307.203 44.5216 307.11C44.7483 307.017 44.9416 306.877 45.1016 306.69L45.6816 307.28C45.455 307.547 45.175 307.75 44.8416 307.89C44.515 308.03 44.165 308.1 43.7916 308.1ZM48.973 308.1C48.5396 308.1 48.1463 307.993 47.793 307.78C47.4396 307.56 47.1596 307.263 46.953 306.89C46.753 306.517 46.653 306.097 46.653 305.63C46.653 305.163 46.753 304.743 46.953 304.37C47.1596 303.997 47.4363 303.7 47.783 303.48C48.1363 303.26 48.533 303.15 48.973 303.15C49.333 303.15 49.653 303.227 49.933 303.38C50.2196 303.527 50.4496 303.733 50.623 304C50.7963 304.26 50.893 304.563 50.913 304.91V306.34C50.893 306.68 50.7963 306.983 50.623 307.25C50.4563 307.517 50.2296 307.727 49.943 307.88C49.663 308.027 49.3396 308.1 48.973 308.1ZM49.123 307.25C49.5696 307.25 49.9296 307.1 50.203 306.8C50.4763 306.493 50.613 306.103 50.613 305.63C50.613 305.303 50.5496 305.02 50.423 304.78C50.303 304.533 50.1296 304.343 49.903 304.21C49.6763 304.07 49.413 304 49.113 304C48.813 304 48.5463 304.07 48.313 304.21C48.0863 304.35 47.9063 304.543 47.773 304.79C47.6463 305.03 47.583 305.307 47.583 305.62C47.583 305.94 47.6463 306.223 47.773 306.47C47.9063 306.71 48.0896 306.9 48.323 307.04C48.5563 307.18 48.823 307.25 49.123 307.25ZM50.553 308V306.72L50.723 305.56L50.553 304.41V303.25H51.463V308H50.553ZM52.7733 308V303.25H53.6733V308H52.7733ZM55.9833 308V305.13C55.9833 304.777 55.8733 304.5 55.6533 304.3C55.4399 304.093 55.1699 303.99 54.8433 303.99C54.6233 303.99 54.4266 304.037 54.2533 304.13C54.0799 304.223 53.9399 304.353 53.8333 304.52C53.7266 304.687 53.6733 304.887 53.6733 305.12L53.3033 304.94C53.3033 304.58 53.3799 304.267 53.5333 304C53.6933 303.733 53.9099 303.527 54.1833 303.38C54.4566 303.227 54.7633 303.15 55.1033 303.15C55.4366 303.15 55.7366 303.223 56.0033 303.37C56.2766 303.517 56.4899 303.723 56.6433 303.99C56.8033 304.257 56.8833 304.573 56.8833 304.94V308H55.9833ZM59.1933 308V305.13C59.1933 304.777 59.0833 304.5 58.8633 304.3C58.6499 304.093 58.3833 303.99 58.0633 303.99C57.8433 303.99 57.6433 304.037 57.4633 304.13C57.2899 304.223 57.1499 304.353 57.0433 304.52C56.9366 304.687 56.8833 304.887 56.8833 305.12L56.3733 304.94C56.3933 304.573 56.4899 304.26 56.6633 304C56.8433 303.733 57.0733 303.527 57.3533 303.38C57.6333 303.227 57.9399 303.15 58.2733 303.15C58.6199 303.15 58.9299 303.223 59.2033 303.37C59.4766 303.517 59.6933 303.723 59.8533 303.99C60.0199 304.257 60.1033 304.577 60.1033 304.95V308H59.1933ZM61.328 305.88V305.03H64.618V305.88H61.328ZM65.9373 308V303.25H66.8373V308H65.9373ZM69.1473 308V305.13C69.1473 304.777 69.0373 304.5 68.8173 304.3C68.604 304.093 68.334 303.99 68.0073 303.99C67.7873 303.99 67.5907 304.037 67.4173 304.13C67.244 304.223 67.104 304.353 66.9973 304.52C66.8907 304.687 66.8373 304.887 66.8373 305.12L66.4673 304.94C66.4673 304.58 66.544 304.267 66.6973 304C66.8573 303.733 67.074 303.527 67.3473 303.38C67.6207 303.227 67.9273 303.15 68.2673 303.15C68.6007 303.15 68.9007 303.223 69.1673 303.37C69.4407 303.517 69.654 303.723 69.8073 303.99C69.9673 304.257 70.0473 304.573 70.0473 304.94V308H69.1473ZM72.3573 308V305.13C72.3573 304.777 72.2473 304.5 72.0273 304.3C71.814 304.093 71.5473 303.99 71.2273 303.99C71.0073 303.99 70.8073 304.037 70.6273 304.13C70.454 304.223 70.314 304.353 70.2073 304.52C70.1007 304.687 70.0473 304.887 70.0473 305.12L69.5373 304.94C69.5573 304.573 69.654 304.26 69.8273 304C70.0073 303.733 70.2373 303.527 70.5173 303.38C70.7973 303.227 71.104 303.15 71.4373 303.15C71.784 303.15 72.094 303.223 72.3673 303.37C72.6407 303.517 72.8573 303.723 73.0173 303.99C73.184 304.257 73.2673 304.577 73.2673 304.95V308H72.3573ZM76.512 308.1C76.0787 308.1 75.6854 307.993 75.332 307.78C74.9787 307.56 74.6987 307.263 74.492 306.89C74.292 306.517 74.192 306.097 74.192 305.63C74.192 305.163 74.292 304.743 74.492 304.37C74.6987 303.997 74.9754 303.7 75.322 303.48C75.6754 303.26 76.072 303.15 76.512 303.15C76.872 303.15 77.192 303.227 77.472 303.38C77.7587 303.527 77.9887 303.733 78.162 304C78.3354 304.26 78.432 304.563 78.452 304.91V306.34C78.432 306.68 78.3354 306.983 78.162 307.25C77.9954 307.517 77.7687 307.727 77.482 307.88C77.202 308.027 76.8787 308.1 76.512 308.1ZM76.662 307.25C77.1087 307.25 77.4687 307.1 77.742 306.8C78.0154 306.493 78.152 306.103 78.152 305.63C78.152 305.303 78.0887 305.02 77.962 304.78C77.842 304.533 77.6687 304.343 77.442 304.21C77.2154 304.07 76.952 304 76.652 304C76.352 304 76.0854 304.07 75.852 304.21C75.6254 304.35 75.4454 304.543 75.312 304.79C75.1854 305.03 75.122 305.307 75.122 305.62C75.122 305.94 75.1854 306.223 75.312 306.47C75.4454 306.71 75.6287 306.9 75.862 307.04C76.0954 307.18 76.362 307.25 76.662 307.25ZM78.092 308V306.72L78.262 305.56L78.092 304.41V303.25H79.002V308H78.092ZM83.6723 308V305.23C83.6723 304.87 83.559 304.573 83.3323 304.34C83.1057 304.107 82.8123 303.99 82.4523 303.99C82.2123 303.99 81.999 304.043 81.8123 304.15C81.6257 304.257 81.479 304.403 81.3723 304.59C81.2657 304.777 81.2123 304.99 81.2123 305.23L80.8423 305.02C80.8423 304.66 80.9223 304.34 81.0823 304.06C81.2423 303.78 81.4657 303.56 81.7523 303.4C82.039 303.233 82.3623 303.15 82.7223 303.15C83.0823 303.15 83.399 303.24 83.6723 303.42C83.9523 303.6 84.1723 303.837 84.3323 304.13C84.4923 304.417 84.5723 304.723 84.5723 305.05V308H83.6723ZM80.3123 308V303.25H81.2123V308H80.3123ZM87.8109 308.1C87.3775 308.1 86.9842 307.993 86.6309 307.78C86.2775 307.56 85.9975 307.263 85.7909 306.89C85.5909 306.517 85.4909 306.097 85.4909 305.63C85.4909 305.163 85.5909 304.743 85.7909 304.37C85.9975 303.997 86.2742 303.7 86.6209 303.48C86.9742 303.26 87.3709 303.15 87.8109 303.15C88.1709 303.15 88.4909 303.227 88.7709 303.38C89.0575 303.527 89.2875 303.733 89.4609 304C89.6342 304.26 89.7309 304.563 89.7509 304.91V306.34C89.7309 306.68 89.6342 306.983 89.4609 307.25C89.2942 307.517 89.0675 307.727 88.7809 307.88C88.5009 308.027 88.1775 308.1 87.8109 308.1ZM87.9609 307.25C88.4075 307.25 88.7675 307.1 89.0409 306.8C89.3142 306.493 89.4509 306.103 89.4509 305.63C89.4509 305.303 89.3875 305.02 89.2609 304.78C89.1409 304.533 88.9675 304.343 88.7409 304.21C88.5142 304.07 88.2509 304 87.9509 304C87.6509 304 87.3842 304.07 87.1509 304.21C86.9242 304.35 86.7442 304.543 86.6109 304.79C86.4842 305.03 86.4209 305.307 86.4209 305.62C86.4209 305.94 86.4842 306.223 86.6109 306.47C86.7442 306.71 86.9275 306.9 87.1609 307.04C87.3942 307.18 87.6609 307.25 87.9609 307.25ZM89.3909 308V306.72L89.5609 305.56L89.3909 304.41V303.25H90.3009V308H89.3909ZM93.5812 310.09C93.0945 310.09 92.6612 310 92.2812 309.82C91.9078 309.64 91.6078 309.387 91.3812 309.06L91.9612 308.47C92.1545 308.717 92.3845 308.903 92.6512 309.03C92.9178 309.163 93.2345 309.23 93.6012 309.23C94.0878 309.23 94.4712 309.1 94.7512 308.84C95.0378 308.587 95.1812 308.243 95.1812 307.81V306.63L95.3412 305.56L95.1812 304.5V303.25H96.0812V307.81C96.0812 308.263 95.9745 308.66 95.7612 309C95.5545 309.34 95.2612 309.607 94.8812 309.8C94.5078 309.993 94.0745 310.09 93.5812 310.09ZM93.5812 307.92C93.1478 307.92 92.7578 307.817 92.4112 307.61C92.0712 307.403 91.8012 307.12 91.6012 306.76C91.4012 306.393 91.3012 305.983 91.3012 305.53C91.3012 305.077 91.4012 304.673 91.6012 304.32C91.8012 303.96 92.0712 303.677 92.4112 303.47C92.7578 303.257 93.1478 303.15 93.5812 303.15C93.9545 303.15 94.2845 303.223 94.5712 303.37C94.8578 303.517 95.0845 303.723 95.2512 303.99C95.4245 304.25 95.5178 304.557 95.5312 304.91V306.17C95.5112 306.517 95.4145 306.823 95.2412 307.09C95.0745 307.35 94.8478 307.553 94.5612 307.7C94.2745 307.847 93.9478 307.92 93.5812 307.92ZM93.7612 307.07C94.0545 307.07 94.3112 307.007 94.5312 306.88C94.7578 306.753 94.9312 306.577 95.0512 306.35C95.1712 306.117 95.2312 305.847 95.2312 305.54C95.2312 305.233 95.1678 304.967 95.0412 304.74C94.9212 304.507 94.7512 304.327 94.5312 304.2C94.3112 304.067 94.0512 304 93.7512 304C93.4512 304 93.1878 304.067 92.9612 304.2C92.7345 304.327 92.5545 304.507 92.4212 304.74C92.2945 304.967 92.2312 305.23 92.2312 305.53C92.2312 305.83 92.2945 306.097 92.4212 306.33C92.5545 306.563 92.7345 306.747 92.9612 306.88C93.1945 307.007 93.4612 307.07 93.7612 307.07ZM99.6022 308.1C99.1289 308.1 98.7022 307.993 98.3222 307.78C97.9422 307.56 97.6422 307.263 97.4222 306.89C97.2022 306.517 97.0922 306.093 97.0922 305.62C97.0922 305.153 97.1989 304.733 97.4122 304.36C97.6322 303.987 97.9255 303.693 98.2922 303.48C98.6655 303.26 99.0822 303.15 99.5422 303.15C99.9822 303.15 100.369 303.25 100.702 303.45C101.042 303.65 101.306 303.927 101.492 304.28C101.686 304.633 101.782 305.033 101.782 305.48C101.782 305.547 101.779 305.62 101.772 305.7C101.766 305.773 101.752 305.86 101.732 305.96H97.7222V305.21H101.252L100.922 305.5C100.922 305.18 100.866 304.91 100.752 304.69C100.639 304.463 100.479 304.29 100.272 304.17C100.066 304.043 99.8155 303.98 99.5222 303.98C99.2155 303.98 98.9455 304.047 98.7122 304.18C98.4789 304.313 98.2989 304.5 98.1722 304.74C98.0455 304.98 97.9822 305.263 97.9822 305.59C97.9822 305.923 98.0489 306.217 98.1822 306.47C98.3155 306.717 98.5055 306.91 98.7522 307.05C98.9989 307.183 99.2822 307.25 99.6022 307.25C99.8689 307.25 100.112 307.203 100.332 307.11C100.559 307.017 100.752 306.877 100.912 306.69L101.492 307.28C101.266 307.547 100.986 307.75 100.652 307.89C100.326 308.03 99.9755 308.1 99.6022 308.1ZM104.774 308.1C104.334 308.1 103.94 307.993 103.594 307.78C103.247 307.56 102.97 307.263 102.764 306.89C102.564 306.517 102.464 306.097 102.464 305.63C102.464 305.163 102.564 304.743 102.764 304.37C102.97 303.997 103.247 303.7 103.594 303.48C103.94 303.26 104.334 303.15 104.774 303.15C105.127 303.15 105.447 303.227 105.734 303.38C106.02 303.527 106.25 303.733 106.424 304C106.604 304.26 106.704 304.563 106.724 304.91V306.34C106.704 306.68 106.607 306.983 106.434 307.25C106.26 307.517 106.03 307.727 105.744 307.88C105.457 308.027 105.134 308.1 104.774 308.1ZM104.924 307.25C105.224 307.25 105.484 307.18 105.704 307.04C105.93 306.9 106.107 306.71 106.234 306.47C106.36 306.223 106.424 305.943 106.424 305.63C106.424 305.303 106.357 305.02 106.224 304.78C106.097 304.54 105.92 304.35 105.694 304.21C105.474 304.07 105.214 304 104.914 304C104.614 304 104.35 304.07 104.124 304.21C103.897 304.35 103.717 304.543 103.584 304.79C103.457 305.03 103.394 305.307 103.394 305.62C103.394 305.94 103.457 306.223 103.584 306.47C103.717 306.71 103.897 306.9 104.124 307.04C104.357 307.18 104.624 307.25 104.924 307.25ZM107.274 308H106.364V306.72L106.534 305.56L106.364 304.41V300.86H107.274V308ZM113.164 308.1C112.804 308.1 112.477 308.027 112.184 307.88C111.897 307.727 111.667 307.517 111.494 307.25C111.321 306.983 111.224 306.68 111.204 306.34V304.91C111.224 304.563 111.321 304.26 111.494 304C111.674 303.733 111.907 303.527 112.194 303.38C112.487 303.227 112.811 303.15 113.164 303.15C113.597 303.15 113.987 303.26 114.334 303.48C114.687 303.7 114.964 303.997 115.164 304.37C115.364 304.743 115.464 305.163 115.464 305.63C115.464 306.097 115.364 306.517 115.164 306.89C114.964 307.263 114.687 307.56 114.334 307.78C113.987 307.993 113.597 308.1 113.164 308.1ZM110.664 309.99V303.25H111.564V304.5L111.394 305.65L111.564 306.81V309.99H110.664ZM113.014 307.25C113.314 307.25 113.577 307.18 113.804 307.04C114.031 306.9 114.211 306.71 114.344 306.47C114.477 306.223 114.544 305.94 114.544 305.62C114.544 305.307 114.477 305.027 114.344 304.78C114.211 304.533 114.031 304.343 113.804 304.21C113.577 304.07 113.317 304 113.024 304C112.724 304 112.461 304.07 112.234 304.21C112.007 304.343 111.831 304.533 111.704 304.78C111.577 305.027 111.514 305.31 111.514 305.63C111.514 305.943 111.574 306.223 111.694 306.47C111.821 306.71 111.997 306.9 112.224 307.04C112.457 307.18 112.721 307.25 113.014 307.25ZM116.484 308V303.25H117.384V308H116.484ZM117.384 305.29L117.044 305.14C117.044 304.533 117.184 304.05 117.464 303.69C117.744 303.33 118.148 303.15 118.674 303.15C118.914 303.15 119.131 303.193 119.324 303.28C119.518 303.36 119.698 303.497 119.864 303.69L119.274 304.3C119.174 304.193 119.064 304.117 118.944 304.07C118.824 304.023 118.684 304 118.524 304C118.191 304 117.918 304.107 117.704 304.32C117.491 304.533 117.384 304.857 117.384 305.29ZM122.512 308.1C122.045 308.1 121.625 307.99 121.252 307.77C120.878 307.55 120.582 307.253 120.362 306.88C120.142 306.5 120.032 306.077 120.032 305.61C120.032 305.15 120.142 304.737 120.362 304.37C120.582 303.997 120.878 303.7 121.252 303.48C121.625 303.26 122.045 303.15 122.512 303.15C122.972 303.15 123.388 303.26 123.762 303.48C124.142 303.693 124.442 303.987 124.662 304.36C124.882 304.733 124.992 305.15 124.992 305.61C124.992 306.077 124.882 306.5 124.662 306.88C124.442 307.253 124.142 307.55 123.762 307.77C123.388 307.99 122.972 308.1 122.512 308.1ZM122.512 307.23C122.812 307.23 123.078 307.16 123.312 307.02C123.545 306.88 123.728 306.69 123.862 306.45C123.995 306.203 124.062 305.923 124.062 305.61C124.062 305.303 123.992 305.03 123.852 304.79C123.718 304.55 123.535 304.363 123.302 304.23C123.075 304.09 122.812 304.02 122.512 304.02C122.212 304.02 121.945 304.09 121.712 304.23C121.478 304.363 121.295 304.55 121.162 304.79C121.028 305.03 120.962 305.303 120.962 305.61C120.962 305.923 121.028 306.203 121.162 306.45C121.295 306.69 121.478 306.88 121.712 307.02C121.945 307.16 122.212 307.23 122.512 307.23ZM125.406 310.09C125.099 310.09 124.842 310.04 124.636 309.94C124.422 309.84 124.232 309.697 124.066 309.51L124.646 308.92C124.739 309.033 124.842 309.117 124.956 309.17C125.062 309.223 125.192 309.25 125.346 309.25C125.546 309.25 125.719 309.187 125.866 309.06C126.012 308.94 126.086 308.757 126.086 308.51V303.25H126.986V308.5C126.986 308.847 126.912 309.137 126.766 309.37C126.619 309.603 126.426 309.78 126.186 309.9C125.946 310.027 125.686 310.09 125.406 310.09ZM126.546 302.3C126.386 302.3 126.252 302.247 126.146 302.14C126.039 302.027 125.986 301.887 125.986 301.72C125.986 301.56 126.039 301.427 126.146 301.32C126.252 301.207 126.386 301.15 126.546 301.15C126.712 301.15 126.849 301.207 126.956 301.32C127.062 301.427 127.116 301.56 127.116 301.72C127.116 301.887 127.062 302.027 126.956 302.14C126.849 302.247 126.712 302.3 126.546 302.3ZM130.51 308.1C130.037 308.1 129.61 307.993 129.23 307.78C128.85 307.56 128.55 307.263 128.33 306.89C128.11 306.517 128 306.093 128 305.62C128 305.153 128.107 304.733 128.32 304.36C128.54 303.987 128.834 303.693 129.2 303.48C129.574 303.26 129.99 303.15 130.45 303.15C130.89 303.15 131.277 303.25 131.61 303.45C131.95 303.65 132.214 303.927 132.4 304.28C132.594 304.633 132.69 305.033 132.69 305.48C132.69 305.547 132.687 305.62 132.68 305.7C132.674 305.773 132.66 305.86 132.64 305.96H128.63V305.21H132.16L131.83 305.5C131.83 305.18 131.774 304.91 131.66 304.69C131.547 304.463 131.387 304.29 131.18 304.17C130.974 304.043 130.724 303.98 130.43 303.98C130.124 303.98 129.854 304.047 129.62 304.18C129.387 304.313 129.207 304.5 129.08 304.74C128.954 304.98 128.89 305.263 128.89 305.59C128.89 305.923 128.957 306.217 129.09 306.47C129.224 306.717 129.414 306.91 129.66 307.05C129.907 307.183 130.19 307.25 130.51 307.25C130.777 307.25 131.02 307.203 131.24 307.11C131.467 307.017 131.66 306.877 131.82 306.69L132.4 307.28C132.174 307.547 131.894 307.75 131.56 307.89C131.234 308.03 130.884 308.1 130.51 308.1ZM135.842 308.1C135.375 308.1 134.952 307.99 134.572 307.77C134.198 307.55 133.902 307.253 133.682 306.88C133.468 306.5 133.362 306.08 133.362 305.62C133.362 305.153 133.468 304.733 133.682 304.36C133.902 303.987 134.198 303.693 134.572 303.48C134.952 303.26 135.375 303.15 135.842 303.15C136.208 303.15 136.548 303.22 136.862 303.36C137.175 303.493 137.445 303.69 137.672 303.95L137.072 304.55C136.925 304.377 136.745 304.247 136.532 304.16C136.325 304.067 136.095 304.02 135.842 304.02C135.542 304.02 135.275 304.09 135.042 304.23C134.808 304.363 134.625 304.55 134.492 304.79C134.358 305.03 134.292 305.307 134.292 305.62C134.292 305.933 134.358 306.21 134.492 306.45C134.625 306.69 134.808 306.88 135.042 307.02C135.275 307.16 135.542 307.23 135.842 307.23C136.095 307.23 136.325 307.187 136.532 307.1C136.745 307.007 136.928 306.873 137.082 306.7L137.672 307.3C137.452 307.553 137.182 307.75 136.862 307.89C136.548 308.03 136.208 308.1 135.842 308.1ZM139.236 308V301.26H140.136V308H139.236ZM138.066 304.07V303.25H141.306V304.07H138.066Z" fill="#5F5F5F"/>
<circle cx="496.5" cy="132.5" r="7.5" fill="#BEA0A0"/>
<circle cx="496.5" cy="268.5" r="7.5" fill="#BEA0A0"/>
<circle cx="496.5" cy="167.5" r="7.5" fill="#BEA0A0"/>
<circle cx="496.5" cy="200.5" r="7.5" fill="#FDDECE"/>
<circle cx="496.5" cy="302.5" r="7.5" fill="#FDDECE"/>
<circle cx="496.5" cy="233.5" r="7.5" fill="#FFD6D2"/>
<circle cx="35.5" cy="123.5" r="7.5" fill="#ECECEC"/>
<circle cx="35.5" cy="152.5" r="7.5" fill="#ECECEC"/>
<circle cx="36.5" cy="181.5" r="7.5" fill="#ECECEC"/>
<circle cx="36.5" cy="210.5" r="7.5" fill="#ECECEC"/>
<circle cx="36.5" cy="237.5" r="7.5" fill="#ECECEC"/>
<rect x="57" y="62" width="80" height="6" rx="3" fill="#ECECEC"/>
<rect x="297" y="62" width="97" height="6" rx="3" fill="#ECECEC"/>
<rect x="223" y="62" width="51" height="6" rx="3" fill="#ECECEC"/>
<rect x="419" y="62" width="51" height="6" rx="3" fill="#ECECEC"/>
<rect x="418" y="93" width="51" height="13" rx="3" fill="#ECECEC"/>
<rect x="418" y="127" width="51" height="13" rx="3" fill="#ECECEC"/>
<rect x="418" y="161" width="51" height="13" rx="3" fill="#BF9999"/>
<rect x="418" y="195" width="51" height="13" rx="3" fill="#BF9999"/>
<rect x="418" y="228" width="51" height="13" rx="3" fill="#BF9999"/>
<rect x="418" y="261" width="51" height="13" rx="3" fill="#C0AFAF"/>
<rect x="418" y="295" width="51" height="13" rx="3" fill="#C0AFAF"/>
<rect x="187" y="62" width="11" height="6" rx="3" fill="#ECECEC"/>
<rect x="487" y="62" width="19" height="6" rx="3" fill="#ECECEC"/>
<rect x="297" y="96" width="97" height="6" rx="3" fill="#ECECEC"/>
<rect x="297" y="164" width="97" height="6" rx="3" fill="#ECECEC"/>
<rect x="297" y="196" width="97" height="6" rx="3" fill="#ECECEC"/>
<rect x="297" y="230" width="97" height="6" rx="3" fill="#ECECEC"/>
<rect x="297" y="264" width="97" height="6" rx="3" fill="#ECECEC"/>
<rect x="297" y="298" width="97" height="6" rx="3" fill="#ECECEC"/>
<rect x="297" y="130" width="55" height="6" rx="3" fill="#ECECEC"/>
<rect x="174" y="25" width="144" height="14" rx="7" fill="#ECECEC"/>
<rect x="57" y="91" width="80" height="6" rx="3" fill="#ECECEC"/>
<rect x="57" y="121" width="80" height="6" rx="3" fill="#ECECEC"/>
<rect x="57" y="149" width="80" height="6" rx="3" fill="#ECECEC"/>
<rect x="57" y="179" width="80" height="6" rx="3" fill="#ECECEC"/>
<rect x="57" y="207" width="80" height="6" rx="3" fill="#ECECEC"/>
<rect x="57" y="236" width="80" height="6" rx="3" fill="#ECECEC"/>
<rect x="186" y="92" width="12" height="12" rx="4" fill="#AF5050"/>
<rect x="26" y="24" width="19" height="19" rx="4" fill="#AF5050"/>
<rect x="186" y="127" width="12" height="12" rx="4" fill="#AF5050"/>
<rect x="186" y="161" width="12" height="12" rx="4" fill="#AF5050"/>
<rect x="186" y="195" width="12" height="12" rx="4" fill="#AF5050"/>
<rect x="186" y="229" width="12" height="12" rx="4" fill="#AF5050"/>
<rect x="186" y="261" width="12" height="12" rx="4" fill="#AF5050"/>
<rect x="186" y="295" width="12" height="12" rx="4" fill="#AF5050"/>
<line x1="159.5" y1="8" x2="159.5" y2="329" stroke="#ECECEC"/>
<line x1="213.5" y1="49" x2="213.5" y2="314" stroke="#ECECEC"/>
<line x1="285.5" y1="49" x2="285.5" y2="314" stroke="#ECECEC"/>
<line x1="407.5" y1="49" x2="407.5" y2="314" stroke="#ECECEC"/>
<line x1="479.5" y1="49" x2="479.5" y2="314" stroke="#ECECEC"/>
<line x1="174" y1="82.5" x2="511" y2="82.5" stroke="#ECECEC"/>
<line x1="174" y1="116.5" x2="511" y2="116.5" stroke="#ECECEC"/>
<line x1="174" y1="149.5" x2="511" y2="149.5" stroke="#ECECEC"/>
<line x1="174" y1="184.5" x2="511" y2="184.5" stroke="#ECECEC"/>
<line x1="174" y1="217.5" x2="511" y2="217.5" stroke="#ECECEC"/>
<line x1="174" y1="250.5" x2="511" y2="250.5" stroke="#ECECEC"/>
<line x1="174" y1="285.5" x2="511" y2="285.5" stroke="#ECECEC"/>
</g>
</g>
</g>
</g>
<defs>
<filter id="filter0_d_8_1197" x="0" y="0" width="537" height="340" filterUnits="userSpaceOnUse" color-interpolation-filters="sRGB">
<feFlood flood-opacity="0" result="BackgroundImageFix"/>
<feColorMatrix in="SourceAlpha" type="matrix" values="0 0 0 0 0 0 0 0 0 0 0 0 0 0 0 0 0 0 127 0" result="hardAlpha"/>
<feOffset dy="1"/>
<feGaussianBlur stdDeviation="4.5"/>
<feComposite in2="hardAlpha" operator="out"/>
<feColorMatrix type="matrix" values="0 0 0 0 0 0 0 0 0 0 0 0 0 0 0 0 0 0 0.19 0"/>
<feBlend mode="normal" in2="BackgroundImageFix" result="effect1_dropShadow_8_1197"/>
<feBlend mode="normal" in="SourceGraphic" in2="effect1_dropShadow_8_1197" result="shape"/>
</filter>
<filter id="filter1_d_8_1197" x="0" y="-1" width="537" height="340" filterUnits="userSpaceOnUse" color-interpolation-filters="sRGB">
<feFlood flood-opacity="0" result="BackgroundImageFix"/>
<feColorMatrix in="SourceAlpha" type="matrix" values="0 0 0 0 0 0 0 0 0 0 0 0 0 0 0 0 0 0 127 0" result="hardAlpha"/>
<feOffset dy="1"/>
<feGaussianBlur stdDeviation="4.5"/>
<feComposite in2="hardAlpha" operator="out"/>
<feColorMatrix type="matrix" values="0 0 0 0 0 0 0 0 0 0 0 0 0 0 0 0 0 0 0.19 0"/>
<feBlend mode="normal" in2="BackgroundImageFix" result="effect1_dropShadow_8_1197"/>
<feBlend mode="normal" in="SourceGraphic" in2="effect1_dropShadow_8_1197" result="shape"/>
</filter>
<clipPath id="clip0_8_1197">
<path d="M9 20C9 13.3726 14.3726 8 21 8H516C522.627 8 528 13.3726 528 20V318C528 324.627 522.627 330 516 330H21C14.3726 330 9 324.627 9 318V20Z" fill="white"/>
</clipPath>
<clipPath id="clip1_8_1197">
<path d="M9 19C9 12.3726 14.3726 7 21 7H516C522.627 7 528 12.3726 528 19V317C528 323.627 522.627 329 516 329H21C14.3726 329 9 323.627 9 317V19Z" fill="white"/>
</clipPath>
</defs>
</svg>
