<svg width="32" height="32" viewBox="0 0 32 32" fill="none" xmlns="http://www.w3.org/2000/svg">
<path d="M5.22172 27.7021H16.5117C16.5117 24.8876 14.2332 22.6096 11.42 22.6096H9.34272V20.5996C9.34272 17.7851 7.06447 15.5068 4.24997 15.5068L4.24997 26.7306C4.25023 26.9882 4.35271 27.2352 4.53489 27.4173C4.71708 27.5995 4.9641 27.7019 5.22172 27.7021Z" fill="#FF2626"/>
<path d="M10.8164 22.0732H22.1064C22.1064 19.2587 19.8292 16.9812 17.0147 16.9812H14.9377V14.9707C14.9377 12.1562 12.6594 9.87768 9.84495 9.87768L9.84495 21.1014C9.84514 21.359 9.94755 21.6061 10.1297 21.7883C10.3118 21.9704 10.5588 22.0729 10.8164 22.0732Z" fill="url(#paint0_linear_3045_1023)"/>
<path d="M16.4111 16.4452H27.7021C27.7021 13.6307 25.4239 11.3525 22.6096 11.3525H20.5321V9.34175C20.5321 6.52825 18.2541 4.25 15.4396 4.25L15.4396 15.4735C15.4398 15.7311 15.5423 15.9781 15.7244 16.1603C15.9065 16.3425 16.1535 16.445 16.4111 16.4452Z" fill="url(#paint1_linear_3045_1023)"/>
<defs>
<linearGradient id="paint0_linear_3045_1023" x1="10.0797" y1="22.0605" x2="14.8835" y2="17.1072" gradientUnits="userSpaceOnUse">
<stop offset="0.176" stop-color="#CC0000"/>
<stop offset="1" stop-color="#FF2626"/>
</linearGradient>
<linearGradient id="paint1_linear_3045_1023" x1="15.3495" y1="16.4018" x2="20.9038" y2="10.998" gradientUnits="userSpaceOnUse">
<stop offset="0.176" stop-color="#CC0000"/>
<stop offset="1" stop-color="#FF2626"/>
</linearGradient>
</defs>
</svg>
